<svg xmlns="http://www.w3.org/2000/svg" viewBox="0 0 36.78 43.93"><defs><style>.cls-1{fill:#e6e6e6;}.cls-2{fill:#7d4569;}</style></defs><title>bulletholes</title><g id="Layer_2" data-name="Layer 2"><g id="SKILLS"><path class="cls-1" d="M3.53,18.93v-3L2,14.44l-1-2A3.44,3.44,0,0,0,1,10L0,7,1,6,3,7H5.55c.51,0,4,1.5,6.06,1.5l2,2Z"/><path class="cls-1" d="M13.63,10.46,27.27,12,23.73,9V8h-1s-1.51-1.5-1.51-2a11.34,11.34,0,0,1,.5-2,11.18,11.18,0,0,1-.5-2,11,11,0,0,0-.51-2s-3.53,3-4,3,0,2,0,2l-3.48,5Z"/><path class="cls-1" d="M30.8,24.9l1-2.49.51-2.49a27.26,27.26,0,0,1,2-3.48c.5-.5.5-2.49.5-2.49s-2,1-3,0l-3-3s-1.51,0-1.51.49,3,13.45,3,13.45S30.8,25.4,30.8,24.9Z"/><path class="cls-1" d="M21.71,34.36h6.06a7.92,7.92,0,0,1,3.54-2.49,12.81,12.81,0,0,1,3-1,5.61,5.61,0,0,1,2-3c1.51-1-1.52,0-2-.5a7.18,7.18,0,0,0-1.52-1l-.5.49-1.52-2s0-.5-.5,0-8.59,9-8.59,9S21.21,34.36,21.71,34.36Z"/><path class="cls-1" d="M9.09,34.36v2.5c0,.49,1.51,3,2,3s0,3.49,1,4,1-1,2-1,4.54-1.49,5.05-2.49,2.52-3.48,2.52-4v-2Z"/><polygon class="cls-1" points="3.54 18.93 2.02 18.43 1.51 21.42 1.01 22.41 2.02 23.41 1.01 24.9 1.51 25.9 1.51 26.89 4.54 29.38 4.54 30.38 6.56 31.38 9.09 34.37 3.54 18.93"/><polygon class="cls-2" points="30.8 24.74 21.71 34.34 9.09 34.34 3.54 18.18 14.14 10.1 27.27 11.61 30.8 24.74"/></g></g></svg>