<svg xmlns="http://www.w3.org/2000/svg" viewBox="0 0 1473.5 946"><defs><style>.cls-1{fill:#c69c6d;}.cls-2,.cls-3{fill:#c7b299;}.cls-2,.cls-3,.cls-4{stroke:#998675;}.cls-2,.cls-3,.cls-4,.cls-6{stroke-miterlimit:10;}.cls-2{stroke-width:0.5px;}.cls-3{stroke-width:2px;}.cls-4,.cls-6{fill:none;}.cls-4{stroke-width:5px;}.cls-5{fill:#736357;}.cls-6{stroke:#736357;}.cls-7{fill:#39b54a;}.cls-8{fill:#e6e6e6;}.cls-9{fill:#381700;}.cls-10{fill:#c44b18;}.cls-11{fill:#ccc;}.cls-12{fill:#123;}.cls-13{fill:#29abe2;}</style></defs><title>computer</title><g id="Layer_2" data-name="Layer 2"><g id="WORK"><rect class="cls-1" x="0.5" y="724.46" width="1473" height="221.54"/><rect class="cls-2" x="888.5" y="775.48" width="511.3" height="105.95"/><rect class="cls-3" x="934.25" y="783.18" width="418.34" height="86.69" rx="2.92"/><line class="cls-4" x1="888" y1="829.45" y2="829.45"/><rect class="cls-5" x="949.05" y="816.7" width="261.87" height="14.68" rx="4.4"/><rect class="cls-5" x="1030.1" y="808.23" width="104.12" height="32.75" rx="4"/><rect class="cls-6" x="1236.99" y="818.82" width="50.01" height="11.56" rx="1.97"/><circle class="cls-7" cx="1321.04" cy="824.89" r="5.11"/><rect class="cls-8" x="107.2" y="758.32" width="46.23" height="38.53" transform="translate(-326.72 135.14) rotate(-25.91)"/><circle class="cls-9" cx="130.17" cy="896.47" r="22.15"/><path class="cls-10" d="M532.29,856.15A556.11,556.11,0,0,0,478.21,831v77H466.65V774.18l15.56.92c-.15,1.7-1.38,2.78-4,3.24v45l2.31-3.24a536.64,536.64,0,0,1,57.93,25.73Z"/><path class="cls-10" d="M495.54,925.4H449.32V755.78l51.76,3.08-1.6,17.8A20.78,20.78,0,0,1,495.54,787v20.33a557.32,557.32,0,0,1,51,23.22L562.69,839l-24,40.24-14.61-7.88c-8.3-4.48-18.41-9.45-28.52-14.08Z"/><path class="cls-10" d="M698.08,799.45a3.66,3.66,0,0,1-2.31,1.54c-14.33,21.88-38.52,44.83-62.24,61.93A303.27,303.27,0,0,1,665.11,893l-9.4,8.17c-16.18-19-46.53-44.38-72.57-59.63l7.4-7.86a308.81,308.81,0,0,1,34.36,22.8c20.8-14.79,41.91-34.66,54.08-52.54H565.89V793.44H687.14l1.85-.93Z"/><path class="cls-10" d="M653.88,925.69l-11.35-13.3c-15.58-18.25-44.87-42.29-68.15-55.93l-18.76-11,22.79-24.22H548.55V776.1H683.06l7.86-3.92,18.88,14.4h2l-.67,1,9.83,7.5-8,13.29a20.26,20.26,0,0,1-5.07,5.68c-11.47,16.52-28,33.93-47.14,49.76,7.89,7.48,14.11,14.13,17.19,17.51l11.94,13.12ZM603.71,821.25c6.89,4.07,14.06,8.71,21.06,13.63,5.54-4.37,10.88-9,15.87-13.63Z"/><path class="cls-10" d="M808.1,856.15A557.21,557.21,0,0,0,754,831v77H742.46V774.18l15.56.92c-.15,1.7-1.38,2.78-4,3.24v45l2.31-3.24a538.39,538.39,0,0,1,57.93,25.73Z"/><path class="cls-10" d="M771.35,925.4H725.13V755.78l51.75,3.08-1.6,17.8A20.67,20.67,0,0,1,771.35,787v20.33a555.86,555.86,0,0,1,51,23.22L838.5,839l-24,40.24-14.6-7.88c-8.31-4.48-18.41-9.45-28.52-14.08Z"/><rect class="cls-11" x="130.5" width="1190.4" height="724" rx="7.93"/><path class="cls-11" d="M1332,595.07a4.49,4.49,0,0,0,.64,0c3.45-.4,34.67-3.91,45.48,0,3.22,1.18,5.53,1,7.19,0,4.53-2.5,3-9.47-2.15-10.21l-55.92-8.08a5.57,5.57,0,0,0-6.36,5.5v7.19a5.56,5.56,0,0,0,5.56,5.56Z"/><rect class="cls-11" x="1332.35" y="99.18" width="45.78" height="485.97" rx="5.56"/><path class="cls-11" d="M1332,89.26a4.49,4.49,0,0,1,.64,0c3.45.4,34.67,3.91,45.48,0,3.22-1.18,5.53-1,7.19,0,4.53,2.5,3,9.47-2.15,10.21l-55.92,8.08a5.57,5.57,0,0,1-6.36-5.5V94.82a5.56,5.56,0,0,1,5.56-5.56Z"/><rect class="cls-11" x="1343.8" y="575.23" width="23.7" height="39.67" rx="6.99"/><rect class="cls-11" x="1343.16" y="69.3" width="23.34" height="39.67" rx="6.99"/><path class="cls-12" d="M1290.5,0V659.32A29.65,29.65,0,0,1,1260.89,689H187.11a29.65,29.65,0,0,1-29.61-29.68V0"/><rect class="cls-13" x="1088.5" y="724" width="65" height="39"/></g></g></svg>