<svg xmlns="http://www.w3.org/2000/svg" viewBox="0 0 2975.87 1811.23"><defs><style>.cls-1{fill:none;stroke-width:5px;}.cls-1,.cls-2{stroke:#b2651f;stroke-miterlimit:10;}.cls-2{fill:#b2651f;}</style></defs><title>goldBg</title><g id="Layer_2" data-name="Layer 2"><g id="Layer_20" data-name="Layer 20"><polyline class="cls-1" points="2827.26 144.35 2791.43 113.08 2713.43 113.08 2589.06 4.53"/><polyline class="cls-1" points="2558.5 145.27 2812.51 366.96 2974.82 366.96"/><polyline class="cls-1" points="2397.24 138.83 2296.06 52.36 2296.06 4.53"/><polyline class="cls-1" points="2975.87 472.75 2809.34 472.75 2543.74 240.94 2354.03 240.94 2082.1 5.45"/><polyline class="cls-1" points="2973.76 522.43 2758.75 522.43 2516.34 316.37 2409.89 316.37"/><polyline class="cls-1" points="2973.76 599.7 2944.25 573.94 2708.16 573.94 2499.48 391.8 2221.23 391.8 2046.27 239.1 2046.27 138.83"/><polyline class="cls-1" points="2973.76 693.52 2895.77 625.45 2657.57 625.45 2551.12 532.54"/><polyline class="cls-1" points="2974.82 768.96 2931.61 768.96 2833.59 683.41 2596.44 683.41 2437.82 544.96 2305.55 544.96 1986.98 266.93 1986.98 114 1858.53 1.88"/><polyline class="cls-1" points="2975.87 820.47 2874.69 820.47 2780.89 738.6 2541.64 738.6 2406.2 620.39 2292.9 620.39 1827.83 214.49"/><polyline class="cls-1" points="2973.76 870.14 2824.1 870.14 2731.35 789.19 2486.83 789.19 2385.65 700.88 2284.47 700.88 1484.5 2.69"/><polyline class="cls-1" points="2974.82 919.82 2775.62 919.82 2681.81 837.95 2472.07 837.95"/><polyline class="cls-1" points="2973.76 1022.85 2674.44 1022.85 2578.52 939.14 2343.49 939.14 2091.06 1159.45 1698.45 1159.45"/><polyline class="cls-1" points="2827.26 971.33 2727.14 971.33 2633.33 889.46 2387.76 889.46 1973.02 527.49 1407.56 527.49 808.11 4.3"/><polyline class="cls-1" points="956.46 3.61 1317.97 319.13 1460.26 319.13 1535.62 384.9"/><polyline class="cls-1" points="1266.33 3.61 1266.33 150.79 1328.51 205.06 1536.14 205.06 1810.18 443.31"/><polyline class="cls-1" points="2160.1 814.95 1976.7 654.89 1580.41 654.89 1540.36 619.93"/><polyline class="cls-1" points="1972.49 783.67 1508.74 783.67 1402.29 690.76 1402.29 599.7 1155.13 383.98 991.24 383.98"/><polyline class="cls-1" points="1118.77 524.27 1366.45 740.44 1366.45 884.86 1586.21 1076.66 2008.32 1076.66 2164.58 940.28 2185.39 940.28"/><polyline class="cls-1" points="1938.76 1238.1 1633.11 1238.1 1275.81 926.26 1275.81 807.59"/><polyline class="cls-1" points="991.24 590.5 1068.18 590.5 1184.12 691.68 1184.12 978.69 1576.19 1320.89"/><polyline class="cls-1" points="1137.74 800.23 1137.74 986.05 1392.8 1208.66 1392.8 1320.89 1599.38 1501.19"/><polyline class="cls-1" points="2784.05 1105.64 2273.93 1105.64 2137.96 1224.3 2137.96 1309.85 2312.4 1462.09 2845.18 1462.09"/><polyline class="cls-1" points="2299.22 1221.54 2381.43 1293.29 2973.76 1293.29"/><polyline class="cls-1" points="2079.99 1523.27 2079.99 1558.22 2110.56 1584.9 2975.87 1584.9"/><polyline class="cls-1" points="2975.87 1709.08 2556.39 1709.08 2464.7 1629.05 2092.64 1629.05 2035.2 1578.92 2035.2 1523.27"/><polyline class="cls-1" points="1985.14 1523.27 1985.14 1596.86 2093.7 1691.61 2332.95 1691.61 2387.23 1738.98 2394.08 1808.43"/><polyline class="cls-1" points="2149.56 1808.43 1938.76 1624.45 1938.76 1523.27"/><polyline class="cls-1" points="1890.28 1523.27 1890.28 1664.93 2053.64 1807.51"/><polyline class="cls-1" points="1843.9 1523.27 1843.9 1561.9 1759.59 1635.49 1956.68 1807.51"/><polyline class="cls-1" points="1824.93 1806.59 983.86 1072.52 882.68 1072.52 783.6 986.05 541.19 986.05 447.39 904.18 22.63 904.18"/><polyline class="cls-1" points="796.25 932.7 585.46 932.7 490.6 849.91 380.99 849.91"/><polyline class="cls-1" points="842.63 881.18 636.05 881.18 542.24 799.31 22.63 799.31"/><polyline class="cls-1" points="893.22 831.51 686.64 831.51 590.73 747.8 92.2 747.8"/><polyline class="cls-1" points="1266.33 1190.27 1056.58 1007.21 1056.58 814.95 973.85 742.74 859.49 742.74 749.09 646.38 380.99 646.38 303.65 578.88 203.92 578.88 107.68 662.88 24.74 662.88"/><polyline class="cls-1" points="1037.61 676.97 867.92 676.97 776.23 596.94 374.66 596.94 216.04 458.49 128.03 458.49"/><polyline class="cls-1" points="480.06 443.31 553.84 507.71 853.17 507.71"/><polyline class="cls-1" points="847.9 465.39 600.21 465.39 435.79 321.89 24.74 321.89"/><polyline class="cls-1" points="850 424.92 720.37 424.92 504.3 236.34 504.3 5.45"/><polyline class="cls-1" points="646.59 5.45 646.59 44.08 578.08 103.88 578.08 204.14 780.97 381.22 847.9 381.22"/><polyline class="cls-1" points="1032.34 286.93 782.55 68.92 704.56 136.99 704.56 171.03 845.26 293.83"/><polyline class="cls-1" points="22.63 949.25 393.63 949.25 491.65 1034.8 730.9 1034.8 863.18 1150.25 988.08 1150.25 1449.45 1552.93"/><polyline class="cls-1" points="1458.15 1806.59 1287.4 1657.57 1287.4 1501.19 970.16 1224.3 842.63 1224.3 679.79 1082.18 440.01 1082.18 345.94 1000.08 24.74 1000.08"/><line class="cls-1" x1="113.28" y1="1054.12" x2="22.63" y2="1054.12"/><polyline class="cls-1" points="267.16 1054.12 290.34 1054.12 384.15 1135.99 629.72 1135.99 826.29 1307.55 896.38 1308.01"/><polyline class="cls-1" points="678.21 1274.89 575.97 1185.67 332.5 1185.67 238.17 1103.34 22.63 1103.34"/><polyline class="cls-1" points="24.74 1153.47 193.38 1153.47 289.29 1237.18 528.54 1237.18 735.65 1417.94 1013.37 1417.94 1185.43 1568.11 1185.43 1672.29"/><polyline class="cls-1" points="819.44 1493.83 714.04 1493.83 479 1288.69 233.43 1288.69 134.88 1202.68 22.63 1202.68"/><polyline class="cls-1" points="22.63 1256.5 90.09 1256.5 183.89 1338.37 431.58 1338.37 694.54 1567.88 882.68 1567.88 1158.56 1808.66"/><polyline class="cls-1" points="547.51 1679.65 484.27 1679.65 335.66 1809.35"/><polyline class="cls-1" points="410.5 1453.35 252.4 1591.34 153.33 1591.34 25.8 1702.64"/><polyline class="cls-1" points="33.17 1328.25 137.52 1419.32 137.52 1480.95 21.05 1582.6"/><polyline class="cls-1" points="277.7 664.09 308.26 690.76 652.91 690.76 699.81 731.7"/><polyline class="cls-1" points="1808.07 1403.68 1739.56 1343.89 1698.45 1343.89"/><polyline class="cls-1" points="23.69 240.02 320.91 240.02 419.98 153.55 419.98 98.36"/><rect class="cls-2" x="846.84" y="415.72" width="44.27" height="18.4"/><rect class="cls-2" x="845.79" y="374.32" width="44.27" height="18.4"/><rect class="cls-2" x="845.79" y="457.11" width="44.27" height="18.4"/><rect class="cls-2" x="847.9" y="497.59" width="44.27" height="18.4"/><rect class="cls-2" x="847.9" y="539.9" width="44.27" height="18.4"/><rect class="cls-2" x="847.9" y="580.38" width="44.27" height="18.4"/><rect class="cls-2" x="949.08" y="374.32" width="44.27" height="18.4"/><rect class="cls-2" x="949.08" y="414.8" width="44.27" height="18.4"/><rect class="cls-2" x="949.08" y="457.11" width="44.27" height="18.4"/><rect class="cls-2" x="949.08" y="497.59" width="44.27" height="18.4"/><rect class="cls-2" x="949.08" y="539.9" width="44.27" height="18.4"/><rect class="cls-2" x="949.08" y="580.38" width="44.27" height="18.4"/><rect class="cls-2" x="1823.53" y="1496.17" width="38.64" height="21.08" transform="translate(3349.56 -336.14) rotate(90)"/><rect class="cls-2" x="1872.01" y="1496.17" width="38.64" height="21.08" transform="translate(3398.04 -384.63) rotate(90)"/><rect class="cls-2" x="1918.39" y="1496.17" width="38.64" height="21.08" transform="translate(3444.41 -431) rotate(90)"/><rect class="cls-2" x="1966.87" y="1496.17" width="38.64" height="21.08" transform="translate(3492.9 -479.48) rotate(90)"/><rect class="cls-2" x="2015.36" y="1496.17" width="38.64" height="21.08" transform="translate(3541.38 -527.97) rotate(90)"/><rect class="cls-2" x="2061.73" y="1496.17" width="38.64" height="21.08" transform="translate(3587.76 -574.34) rotate(90)"/><rect class="cls-2" x="1823.53" y="1406.02" width="38.64" height="21.08" transform="translate(3259.41 -426.29) rotate(90)"/><rect class="cls-2" x="1872.01" y="1406.02" width="38.64" height="21.08" transform="translate(3307.89 -474.77) rotate(90)"/><rect class="cls-2" x="1918.39" y="1406.02" width="38.64" height="21.08" transform="translate(3354.27 -521.15) rotate(90)"/><rect class="cls-2" x="1966.87" y="1406.02" width="38.64" height="21.08" transform="translate(3402.75 -569.63) rotate(90)"/><rect class="cls-2" x="2015.36" y="1406.02" width="38.64" height="21.08" transform="translate(3451.23 -618.11) rotate(90)"/><rect class="cls-2" x="2061.73" y="1406.02" width="38.64" height="21.08" transform="translate(3497.61 -664.49) rotate(90)"/><ellipse class="cls-2" cx="1957.73" cy="1238.1" rx="20.03" ry="17.48"/><ellipse class="cls-2" cx="1824.93" cy="1411.04" rx="20.03" ry="17.48"/><ellipse class="cls-2" cx="1681.59" cy="1342.97" rx="20.03" ry="17.48"/><ellipse class="cls-2" cx="1586.73" cy="1331.93" rx="20.03" ry="17.48"/><ellipse class="cls-2" cx="1681.59" cy="1158.99" rx="20.03" ry="17.48"/><ellipse class="cls-2" cx="1612.03" cy="1514.07" rx="20.03" ry="17.48"/><ellipse class="cls-2" cx="2857.83" cy="1462.55" rx="20.03" ry="17.48"/><ellipse class="cls-2" cx="2288.68" cy="1212.34" rx="20.03" ry="17.48"/><ellipse class="cls-2" cx="2803.02" cy="1107.48" rx="20.03" ry="17.48"/><ellipse class="cls-2" cx="2840.96" cy="971.33" rx="20.03" ry="17.48"/><ellipse class="cls-2" cx="2459.43" cy="838.87" rx="20.03" ry="17.48"/><ellipse class="cls-2" cx="2537.42" cy="524.27" rx="20.03" ry="17.48"/><ellipse class="cls-2" cx="2391.97" cy="316.37" rx="20.03" ry="17.48"/><ellipse class="cls-2" cx="2840.96" cy="156.31" rx="20.03" ry="17.48"/><ellipse class="cls-2" cx="2545.85" cy="136.07" rx="20.03" ry="17.48"/><ellipse class="cls-2" cx="2408.83" cy="150.79" rx="20.03" ry="17.48"/><ellipse class="cls-2" cx="2046.27" cy="125.03" rx="20.03" ry="17.48"/><ellipse class="cls-2" cx="1812.28" cy="204.14" rx="20.03" ry="17.48"/><ellipse class="cls-2" cx="1818.61" cy="454.35" rx="20.03" ry="17.48"/><ellipse class="cls-2" cx="1546.68" cy="395.48" rx="20.03" ry="17.48"/><ellipse class="cls-2" cx="2170.64" cy="824.15" rx="20.03" ry="17.48"/><ellipse class="cls-2" cx="2202.26" cy="940.06" rx="20.03" ry="17.48"/><ellipse class="cls-2" cx="1989.35" cy="783.67" rx="20.03" ry="17.48"/><ellipse class="cls-2" cx="1272.65" cy="791.03" rx="20.03" ry="17.48"/><ellipse class="cls-2" cx="1137.74" cy="785.51" rx="20.03" ry="17.48"/><ellipse class="cls-2" cx="1055.53" cy="678.81" rx="20.03" ry="17.48"/><ellipse class="cls-2" cx="1106.12" cy="513.23" rx="20.03" ry="17.48"/><ellipse class="cls-2" cx="1040.77" cy="297.97" rx="20.03" ry="17.48"/><ellipse class="cls-2" cx="859.49" cy="303.49" rx="20.03" ry="17.48"/><ellipse class="cls-2" cx="1276.86" cy="1201.3" rx="20.03" ry="17.48"/><ellipse class="cls-2" cx="1458.15" cy="1565.58" rx="20.03" ry="17.48"/><ellipse class="cls-2" cx="1184.11" cy="1685.17" rx="20.03" ry="17.48"/><ellipse class="cls-2" cx="836.3" cy="1493.83" rx="20.03" ry="17.48"/><ellipse class="cls-2" cx="564.38" cy="1679.65" rx="20.03" ry="17.48"/><ellipse class="cls-2" cx="425.25" cy="1444.15" rx="20.03" ry="17.48"/><ellipse class="cls-2" cx="20.53" cy="1315.37" rx="20.03" ry="17.48"/><ellipse class="cls-2" cx="248.18" cy="1054.12" rx="20.03" ry="17.48"/><ellipse class="cls-2" cx="134.35" cy="1052.28" rx="20.03" ry="17.48"/><ellipse class="cls-2" cx="362.01" cy="849.91" rx="20.03" ry="17.48"/><ellipse class="cls-2" cx="813.12" cy="932.7" rx="20.03" ry="17.48"/><ellipse class="cls-2" cx="861.6" cy="881.18" rx="20.03" ry="17.48"/><ellipse class="cls-2" cx="912.19" cy="831.51" rx="20.03" ry="17.48"/><ellipse class="cls-2" cx="707.72" cy="737.68" rx="20.03" ry="17.48"/><ellipse class="cls-2" cx="265.05" cy="654.89" rx="20.03" ry="17.48"/><ellipse class="cls-2" cx="467.41" cy="432.28" rx="20.03" ry="17.48"/><ellipse class="cls-2" cx="115.38" cy="456.19" rx="20.03" ry="17.48"/><ellipse class="cls-2" cx="423.14" cy="90.08" rx="20.03" ry="17.48"/><ellipse class="cls-2" cx="690.85" cy="1285.93" rx="20.03" ry="17.48"/><ellipse class="cls-2" cx="914.3" cy="1309.85" rx="20.03" ry="17.48"/><ellipse class="cls-2" cx="75.33" cy="746.88" rx="20.03" ry="17.48"/></g></g></svg>