<svg xmlns="http://www.w3.org/2000/svg" viewBox="0 0 481.14 880.98"><defs><style>.cls-1{fill:#999;}.cls-2{fill:gray;}.cls-3{fill:#c69c6d;}.cls-4,.cls-7{fill:#20495b;}.cls-5,.cls-6{fill:#123;}.cls-6,.cls-7,.cls-8{stroke:#c69c6d;stroke-miterlimit:10;}.cls-6,.cls-7{stroke-width:2px;}.cls-8{fill:none;stroke-width:3px;}.cls-9{fill:#e6e6e6;}.cls-10{fill:#7d4569;}</style></defs><title>target3</title><g id="Layer_2" data-name="Layer 2"><g id="SKILLS"><g id="target3"><rect class="cls-1" x="207.43" width="54" height="247"/><rect class="cls-2" x="234.43" width="27" height="247"/><path class="cls-3" d="M477.74,813.75c1.1,0,2.19,0,3.27.08V292.78c-38.92-.32-70.4-29.15-70.76-64.8H66.79c-1,33.89-30.13,61.34-66.79,63.47V815c38.54,1,69.47,29.85,69.47,65.37,0,.21,0,.4,0,.61h336.9c0-.6,0-1.2,0-1.81C406.31,843,438.29,813.75,477.74,813.75Z"/><circle class="cls-4" cx="240.51" cy="547.71" r="210.36"/><circle class="cls-5" cx="240.51" cy="545.09" r="161.87"/><circle class="cls-4" cx="240.51" cy="540.5" r="114.03"/><circle class="cls-6" cx="239.85" cy="537.88" r="79.95"/><circle class="cls-7" cx="239.94" cy="535.36" r="39.41"/><line class="cls-8" x1="1.43" y1="535.98" x2="481.14" y2="535.98"/><line class="cls-8" x1="238.64" y1="228.98" x2="238.64" y2="879.98"/><circle class="cls-6" cx="239.2" cy="535.26" r="15.73"/><path class="cls-9" d="M435.9,755.09v-3l-1.51-1.49-1-2a3.44,3.44,0,0,0,0-2.49l-1-3,1-1,2,1h2.52c.51,0,4,1.49,6.06,1.49l2,2Z"/><path class="cls-9" d="M446,746.62l13.63,1.5-3.53-3v-1h-1s-1.52-1.49-1.52-2a11,11,0,0,1,.51-2,11.24,11.24,0,0,1-.51-2,11.34,11.34,0,0,0-.5-2s-3.53,3-4,3,0,2,0,2l-3.49,5Z"/><path class="cls-9" d="M463.17,761.07l1-2.49.5-2.49a29.29,29.29,0,0,1,2-3.49c.51-.5.51-2.49.51-2.49s-2,1-3,0l-3-3s-1.52,0-1.52.5,3,13.45,3,13.45S463.17,761.56,463.17,761.07Z"/><path class="cls-9" d="M454.08,770.53h6.06a7.92,7.92,0,0,1,3.53-2.49,12.9,12.9,0,0,1,3-1,5.68,5.68,0,0,1,2-3c1.52-1-1.51,0-2-.49a7.16,7.16,0,0,0-1.51-1l-.51.5-1.51-2s0-.5-.51,0-8.58,9-8.58,9S453.57,770.53,454.08,770.53Z"/><path class="cls-9" d="M441.46,770.53V773c0,.5,1.51,3,2,3s0,3.48,1,4,1-1,2-1,4.54-1.5,5-2.49,2.53-3.49,2.53-4v-2Z"/><polygon class="cls-9" points="435.9 755.09 434.39 754.59 433.88 757.58 433.38 758.58 434.39 759.57 433.38 761.07 433.88 762.06 433.88 763.06 436.91 765.55 436.91 766.54 438.93 767.54 441.46 770.53 435.9 755.09"/><polygon class="cls-10" points="463.17 760.91 454.08 770.5 441.46 770.5 435.9 754.34 446.51 746.26 459.63 747.78 463.17 760.91"/><path class="cls-9" d="M339.28,290.16v-3l-1.51-1.5-1-2a3.38,3.38,0,0,0,0-2.49l-1-3,1-1,2,1h2.52c.51,0,4,1.49,6.06,1.49l2,2Z"/><path class="cls-9" d="M349.38,281.7,363,283.19l-3.54-3v-1h-1s-1.51-1.5-1.51-2a11.42,11.42,0,0,1,.5-2,11.18,11.18,0,0,1-.5-2,11,11,0,0,0-.51-2s-3.53,3-4,3,0,2,0,2l-3.48,5Z"/><path class="cls-9" d="M366.55,296.14l1-2.49.51-2.49a28,28,0,0,1,2-3.49c.5-.49.5-2.49.5-2.49s-2,1-3,0l-3-3s-1.51,0-1.51.5,3,13.45,3,13.45S366.55,296.64,366.55,296.14Z"/><path class="cls-9" d="M357.46,305.6h6.06a7.92,7.92,0,0,1,3.54-2.49,12.81,12.81,0,0,1,3-1,5.58,5.58,0,0,1,2-3c1.51-1-1.52,0-2-.5a7.39,7.39,0,0,0-1.52-1l-.5.5-1.52-2s0-.5-.5,0-8.59,9-8.59,9S357,305.6,357.46,305.6Z"/><path class="cls-9" d="M344.84,305.6v2.49c0,.5,1.51,3,2,3s0,3.49,1,4,1-1,2-1,4.54-1.49,5.05-2.49,2.52-3.49,2.52-4v-2Z"/><polygon class="cls-9" points="339.29 290.16 337.77 289.67 337.26 292.65 336.76 293.65 337.77 294.65 336.76 296.14 337.26 297.14 337.26 298.13 340.3 300.62 340.3 301.62 342.31 302.62 344.84 305.6 339.29 290.16"/><polygon class="cls-10" points="366.55 295.98 357.46 305.57 344.84 305.57 339.29 289.42 349.89 281.34 363.02 282.85 366.55 295.98"/><path class="cls-9" d="M39.72,534.66v-3l-1.51-1.49-1-2a3.38,3.38,0,0,0,0-2.49l-1-3,1-1,2,1h2.52c.51,0,4,1.49,6.06,1.49l2,2Z"/><path class="cls-9" d="M49.82,526.2l13.64,1.49-3.54-3v-1h-1s-1.51-1.5-1.51-2a11.42,11.42,0,0,1,.5-2,11.18,11.18,0,0,1-.5-2,11,11,0,0,0-.51-2s-3.53,3-4,3,0,2,0,2l-3.48,5Z"/><path class="cls-9" d="M67,540.64l1-2.49.51-2.49a28,28,0,0,1,2-3.49c.5-.5.5-2.49.5-2.49s-2,1-3,0l-3-3s-1.51,0-1.51.5,3,13.45,3,13.45S67,541.14,67,540.64Z"/><path class="cls-9" d="M57.9,550.1H64a7.92,7.92,0,0,1,3.54-2.49,12.81,12.81,0,0,1,3-1,5.58,5.58,0,0,1,2-3c1.51-1-1.52,0-2-.5a7.39,7.39,0,0,0-1.52-1l-.5.5-1.52-2s0-.5-.5,0-8.59,9-8.59,9S57.4,550.1,57.9,550.1Z"/><path class="cls-9" d="M45.28,550.1v2.49c0,.5,1.51,3,2,3s0,3.49,1,4,1-1,2-1,4.54-1.5,5.05-2.49,2.52-3.49,2.52-4v-2Z"/><polygon class="cls-9" points="39.73 534.66 38.21 534.16 37.7 537.15 37.2 538.15 38.21 539.14 37.2 540.64 37.7 541.63 37.7 542.63 40.73 545.12 40.73 546.12 42.76 547.11 45.28 550.1 39.73 534.66"/><polygon class="cls-10" points="66.99 540.48 57.9 550.07 45.28 550.07 39.73 533.91 50.33 525.84 63.46 527.35 66.99 540.48"/></g></g></g></svg>