<svg xmlns="http://www.w3.org/2000/svg" viewBox="0 0 481.14 883.85"><defs><style>.cls-1{fill:#999;}.cls-2{fill:gray;}.cls-3{fill:#c69c6d;}.cls-4,.cls-7{fill:#20495b;}.cls-5,.cls-6{fill:#123;}.cls-6,.cls-7,.cls-8{stroke:#c69c6d;stroke-miterlimit:10;}.cls-6,.cls-7{stroke-width:2px;}.cls-8{fill:none;stroke-width:3px;}.cls-9{fill:#e6e6e6;}.cls-10{fill:#7d4569;}</style></defs><title>target2</title><g id="Layer_2" data-name="Layer 2"><g id="SKILLS"><g id="target2"><rect class="cls-1" x="213.46" width="54" height="247"/><rect class="cls-2" x="240.46" width="27" height="247"/><path class="cls-3" d="M477.74,816.63c1.1,0,2.19,0,3.27.07V295.65c-38.92-.32-70.4-29.15-70.76-64.8H66.79c-1,33.89-30.13,61.34-66.79,63.47V817.87c38.54,1,69.47,29.85,69.47,65.38,0,.2,0,.4,0,.6h336.9c0-.6,0-1.2,0-1.8C406.31,845.92,438.29,816.63,477.74,816.63Z"/><circle class="cls-4" cx="240.51" cy="550.58" r="210.36"/><circle class="cls-5" cx="240.51" cy="547.96" r="161.87"/><circle class="cls-4" cx="240.51" cy="543.38" r="114.03"/><circle class="cls-6" cx="239.85" cy="540.75" r="79.95"/><circle class="cls-7" cx="239.94" cy="538.23" r="39.41"/><line class="cls-8" x1="0.46" y1="538.85" x2="481.14" y2="538.85"/><line class="cls-8" x1="238.64" y1="231.85" x2="238.64" y2="882.85"/><circle class="cls-6" cx="239.2" cy="538.13" r="15.73"/><path class="cls-9" d="M313.9,403v-3l-1.51-1.49-1-2a3.44,3.44,0,0,0,0-2.49l-1-3,1-1,2,1h2.52c.51,0,4,1.49,6.06,1.49l2,2Z"/><path class="cls-9" d="M324,394.5,337.63,396l-3.53-3v-1h-1s-1.52-1.49-1.52-2a11,11,0,0,1,.51-2,11,11,0,0,1-.51-2,11.18,11.18,0,0,0-.5-2s-3.53,3-4,3,0,2,0,2l-3.49,5Z"/><path class="cls-9" d="M341.17,408.94l1-2.49.5-2.49a29.29,29.29,0,0,1,2-3.49c.51-.5.51-2.49.51-2.49s-2,1-3,0l-3-3s-1.52,0-1.52.5,3,13.45,3,13.45S341.17,409.44,341.17,408.94Z"/><path class="cls-9" d="M332.08,418.4h6.06a7.92,7.92,0,0,1,3.53-2.49,12.9,12.9,0,0,1,3-1,5.64,5.64,0,0,1,2-3c1.52-1-1.51,0-2-.5a7.16,7.16,0,0,0-1.51-1l-.51.5-1.51-2s0-.5-.51,0-8.58,9-8.58,9S331.57,418.4,332.08,418.4Z"/><path class="cls-9" d="M319.46,418.4v2.49c0,.5,1.51,3,2,3s0,3.49,1,4,1-1,2-1,4.54-1.5,5-2.49,2.53-3.49,2.53-4v-2Z"/><polygon class="cls-9" points="313.9 402.96 312.39 402.46 311.88 405.45 311.38 406.45 312.39 407.44 311.38 408.94 311.88 409.93 311.88 410.93 314.91 413.42 314.91 414.42 316.93 415.41 319.46 418.4 313.9 402.96"/><polygon class="cls-10" points="341.17 408.78 332.08 418.37 319.46 418.37 313.9 402.21 324.51 394.13 337.63 395.65 341.17 408.78"/><path class="cls-9" d="M225.28,755v-3l-1.51-1.5-1-2a3.38,3.38,0,0,0,0-2.49l-1-3,1-1,2,1h2.52c.51,0,4,1.5,6.06,1.5l2,2Z"/><path class="cls-9" d="M235.38,746.57,249,748.06l-3.54-3v-1h-1s-1.51-1.5-1.51-2a11.34,11.34,0,0,1,.5-2,11.18,11.18,0,0,1-.5-2,11,11,0,0,0-.51-2s-3.53,3-4,3,0,2,0,2l-3.48,5Z"/><path class="cls-9" d="M252.55,761l1-2.49.51-2.49a27.26,27.26,0,0,1,2-3.48c.5-.5.5-2.5.5-2.5s-2,1-3,0l-3-3s-1.51,0-1.51.49,3,13.45,3,13.45S252.55,761.51,252.55,761Z"/><path class="cls-9" d="M243.46,770.47h6.06a7.92,7.92,0,0,1,3.54-2.49,12.81,12.81,0,0,1,3-1,5.61,5.61,0,0,1,2-3c1.51-1-1.52,0-2-.5a7.18,7.18,0,0,0-1.52-1l-.5.49-1.52-2s0-.5-.5,0-8.59,9-8.59,9S243,770.47,243.46,770.47Z"/><path class="cls-9" d="M230.84,770.47V773c0,.5,1.51,3,2,3s0,3.49,1,4,1-1,2-1,4.54-1.49,5.05-2.49,2.52-3.49,2.52-4v-2Z"/><polygon class="cls-9" points="225.28 755.03 223.77 754.54 223.26 757.53 222.76 758.52 223.77 759.52 222.76 761.01 223.26 762.01 223.26 763 226.29 765.49 226.29 766.49 228.31 767.49 230.84 770.48 225.28 755.03"/><polygon class="cls-10" points="252.55 760.85 243.46 770.45 230.84 770.45 225.28 754.29 235.89 746.21 249.02 747.72 252.55 760.85"/></g></g></g></svg>