<svg xmlns="http://www.w3.org/2000/svg" viewBox="0 0 481.01 884"><defs><style>.cls-1{fill:#999;}.cls-2{fill:gray;}.cls-3{fill:#c69c6d;}.cls-4{fill:#e6e6e6;}.cls-5{fill:#7d4569;}</style></defs><title>target1BACK</title><g id="Layer_2" data-name="Layer 2"><g id="SKILLS"><g id="target1"><rect class="cls-1" x="215.87" width="54" height="247" transform="translate(485.74 247) rotate(-180)"/><rect class="cls-2" x="215.87" width="27" height="247" transform="translate(458.74 247) rotate(-180)"/><path class="cls-3" d="M3.28,816.78c-1.1,0-2.19,0-3.28.08V295.8c38.93-.32,70.41-29.15,70.76-64.8H414.22c1,33.89,30.13,61.34,66.79,63.47V818c-38.54,1-69.46,29.84-69.46,65.37,0,.2,0,.4,0,.6H74.66c0-.6,0-1.2,0-1.8C74.71,846.07,42.73,816.78,3.28,816.78Z"/><path class="cls-4" d="M160.11,582.11v-3l1.52-1.5,1-2a3.38,3.38,0,0,1,0-2.49l1-3-1-1-2,1h-2.53c-.5,0-4,1.5-6.06,1.5l-2,2Z"/><path class="cls-4" d="M150,573.65l-13.63,1.49,3.53-3v-1h1s1.52-1.5,1.52-2a11.16,11.16,0,0,0-.51-2,11,11,0,0,0,.51-2,11.18,11.18,0,0,1,.5-2s3.54,3,4,3,0,2,0,2l3.49,5Z"/><path class="cls-4" d="M132.84,588.09l-1-2.49-.5-2.49a29.29,29.29,0,0,0-2-3.49c-.5-.49-.5-2.49-.5-2.49s2,1,3,0l3-3s1.52,0,1.52.49-3,13.45-3,13.45S132.84,588.59,132.84,588.09Z"/><path class="cls-4" d="M141.93,597.55h-6.06a7.92,7.92,0,0,0-3.53-2.49,13,13,0,0,0-3-1,5.61,5.61,0,0,0-2-3c-1.51-1,1.52,0,2-.5a7,7,0,0,1,1.51-1l.51.49,1.51-2s0-.5.51,0,8.58,9,8.58,9S142.44,597.55,141.93,597.55Z"/><path class="cls-4" d="M154.56,597.55V600c0,.5-1.52,3-2,3s0,3.49-1,4-1-1-2-1-4.55-1.49-5-2.49-2.53-3.49-2.53-4v-2Z"/><polygon class="cls-4" points="160.11 582.12 161.63 581.62 162.13 584.61 162.64 585.6 161.63 586.6 162.64 588.09 162.13 589.09 162.13 590.08 159.1 592.57 159.1 593.57 157.08 594.57 154.56 597.55 160.11 582.12"/><polygon class="cls-5" points="132.84 587.93 141.93 597.52 154.56 597.52 160.11 581.37 149.51 573.29 136.38 574.8 132.84 587.93"/><path class="cls-4" d="M357.73,361.19v-3l1.51-1.49,1-2a3.43,3.43,0,0,1,0-2.49l1-3-1-1-2,1h-2.52c-.51,0-4,1.49-6.06,1.49l-2,2Z"/><path class="cls-4" d="M347.63,352.72,334,354.22l3.53-3v-1h1s1.52-1.49,1.52-2a11,11,0,0,0-.51-2,11.24,11.24,0,0,0,.51-2,11.34,11.34,0,0,1,.5-2s3.53,3,4,3,0,2,0,2l3.49,5Z"/><path class="cls-4" d="M330.46,367.16l-1-2.49-.5-2.49a29.3,29.3,0,0,0-2-3.48c-.51-.5-.51-2.49-.51-2.49s2,1,3,0l3-3s1.52,0,1.52.5-3,13.44-3,13.44S330.46,367.66,330.46,367.16Z"/><path class="cls-4" d="M339.55,376.63h-6.06a7.83,7.83,0,0,0-3.53-2.49,12.9,12.9,0,0,0-3-1,5.68,5.68,0,0,0-2-3c-1.52-1,1.51,0,2-.49a7.16,7.16,0,0,1,1.51-1l.51.5,1.51-2s0-.49.51,0,8.58,9,8.58,9S340.06,376.63,339.55,376.63Z"/><path class="cls-4" d="M352.17,376.63v2.49c0,.5-1.51,3-2,3s0,3.48-1,4-1-1-2-1-4.54-1.49-5-2.49-2.53-3.48-2.53-4v-2Z"/><polygon class="cls-4" points="357.73 361.19 359.24 360.69 359.75 363.68 360.25 364.68 359.24 365.67 360.25 367.17 359.75 368.16 359.75 369.16 356.72 371.65 356.72 372.64 354.7 373.64 352.17 376.63 357.73 361.19"/><polygon class="cls-5" points="330.46 367 339.55 376.6 352.17 376.6 357.73 360.44 347.13 352.36 334 353.88 330.46 367"/><path class="cls-4" d="M391.29,805.69v-3l1.51-1.49,1-2a3.43,3.43,0,0,1,0-2.49l1-3-1-1-2,1h-2.52c-.51,0-4,1.5-6.06,1.5l-2,2Z"/><path class="cls-4" d="M381.19,797.22l-13.63,1.5,3.53-3v-1h1s1.52-1.49,1.52-2a11,11,0,0,0-.51-2,11.16,11.16,0,0,0,.51-2,11.42,11.42,0,0,1,.5-2s3.53,3,4,3,0,2,0,2l3.49,5Z"/><path class="cls-4" d="M364,811.66l-1-2.49-.5-2.49a29.3,29.3,0,0,0-2-3.48c-.51-.5-.51-2.49-.51-2.49s2,1,3,0l3-3s1.52,0,1.52.5-3,13.44-3,13.44S364,812.16,364,811.66Z"/><path class="cls-4" d="M373.11,821.13h-6.06a7.83,7.83,0,0,0-3.53-2.49,12.9,12.9,0,0,0-3-1,5.68,5.68,0,0,0-2-3c-1.52-1,1.51,0,2-.5a7.39,7.39,0,0,1,1.51-1l.51.5,1.51-2s0-.49.51,0,8.58,9,8.58,9S373.62,821.13,373.11,821.13Z"/><path class="cls-4" d="M385.73,821.13v2.49c0,.5-1.51,3-2,3s0,3.48-1,4-1-1-2-1-4.54-1.49-5.05-2.49-2.52-3.48-2.52-4v-2Z"/><polygon class="cls-4" points="391.29 805.69 392.8 805.19 393.31 808.18 393.81 809.17 392.8 810.17 393.81 811.66 393.31 812.66 393.31 813.66 390.28 816.15 390.28 817.14 388.26 818.14 385.73 821.13 391.29 805.69"/><polygon class="cls-5" points="364.02 811.5 373.11 821.1 385.73 821.1 391.29 804.94 380.68 796.86 367.56 798.38 364.02 811.5"/></g></g></g></svg>