<svg xmlns="http://www.w3.org/2000/svg" viewBox="0 0 481.01 883.85"><defs><style>.cls-1{fill:#999;}.cls-2{fill:gray;}.cls-3{fill:#c69c6d;}.cls-4{fill:#e6e6e6;}.cls-5{fill:#7d4569;}</style></defs><title>target2BACK (2)</title><g id="Layer_2" data-name="Layer 2"><g id="SKILLS"><g id="target2"><rect class="cls-1" x="213.55" width="54" height="247" transform="translate(481.1 247) rotate(-180)"/><rect class="cls-2" x="213.55" width="27" height="247" transform="translate(454.1 247) rotate(-180)"/><path class="cls-3" d="M3.28,816.63c-1.1,0-2.19,0-3.28.07V295.65c38.93-.32,70.41-29.15,70.76-64.8H414.22c1,33.89,30.13,61.34,66.79,63.47V817.87c-38.54,1-69.46,29.85-69.46,65.38,0,.2,0,.4,0,.6H74.66c0-.6,0-1.2,0-1.8C74.71,845.92,42.73,816.63,3.28,816.63Z"/><path class="cls-4" d="M167.11,403v-3l1.52-1.49,1-2a3.38,3.38,0,0,1,0-2.49l1-3-1-1-2,1h-2.53c-.5,0-4,1.49-6.06,1.49l-2,2Z"/><path class="cls-4" d="M157,394.5,143.38,396l3.53-3v-1h1s1.52-1.49,1.52-2a11,11,0,0,0-.51-2,11,11,0,0,0,.51-2,11.18,11.18,0,0,1,.5-2s3.54,3,4,3,0,2,0,2l3.49,5Z"/><path class="cls-4" d="M139.84,408.94l-1-2.49-.5-2.49a29.29,29.29,0,0,0-2-3.49c-.5-.5-.5-2.49-.5-2.49s2,1,3,0l3-3s1.52,0,1.52.5-3,13.45-3,13.45S139.84,409.44,139.84,408.94Z"/><path class="cls-4" d="M148.93,418.4h-6.06a7.92,7.92,0,0,0-3.53-2.49,12.9,12.9,0,0,0-3-1,5.57,5.57,0,0,0-2-3c-1.51-1,1.52,0,2-.5a7.16,7.16,0,0,1,1.51-1l.51.5,1.51-2s0-.5.51,0,8.58,9,8.58,9S149.44,418.4,148.93,418.4Z"/><path class="cls-4" d="M161.56,418.4v2.49c0,.5-1.52,3-2,3s0,3.49-1,4-1-1-2-1-4.55-1.5-5-2.49-2.53-3.49-2.53-4v-2Z"/><polygon class="cls-4" points="167.11 402.96 168.63 402.46 169.13 405.45 169.64 406.45 168.63 407.44 169.64 408.94 169.13 409.93 169.13 410.93 166.1 413.42 166.1 414.42 164.08 415.41 161.56 418.4 167.11 402.96"/><polygon class="cls-5" points="139.84 408.78 148.93 418.37 161.56 418.37 167.11 402.21 156.51 394.13 143.38 395.65 139.84 408.78"/><path class="cls-4" d="M255.73,755v-3l1.51-1.5,1-2a3.44,3.44,0,0,1,0-2.49l1-3-1-1-2,1h-2.52c-.51,0-4,1.5-6.06,1.5l-2,2Z"/><path class="cls-4" d="M245.63,746.57,232,748.06l3.53-3v-1h1s1.52-1.5,1.52-2a11.16,11.16,0,0,0-.51-2,11,11,0,0,0,.51-2,11.18,11.18,0,0,1,.5-2s3.53,3,4,3,0,2,0,2l3.49,5Z"/><path class="cls-4" d="M228.46,761l-1-2.49L227,756a28.53,28.53,0,0,0-2-3.48c-.51-.5-.51-2.5-.51-2.5s2,1,3,0l3-3s1.52,0,1.52.49S229,761,229,761,228.46,761.51,228.46,761Z"/><path class="cls-4" d="M237.55,770.47h-6.06A7.92,7.92,0,0,0,228,768a13,13,0,0,0-3-1,5.68,5.68,0,0,0-2-3c-1.52-1,1.51,0,2-.5a7,7,0,0,1,1.51-1l.51.49,1.51-2s0-.5.51,0,8.58,9,8.58,9S238.06,770.47,237.55,770.47Z"/><path class="cls-4" d="M250.17,770.47V773c0,.5-1.51,3-2,3s0,3.49-1,4-1-1-2-1-4.54-1.49-5-2.49-2.53-3.49-2.53-4v-2Z"/><polygon class="cls-4" points="255.73 755.03 257.24 754.54 257.75 757.53 258.25 758.52 257.24 759.52 258.25 761.01 257.75 762.01 257.75 763 254.72 765.49 254.72 766.49 252.7 767.49 250.17 770.48 255.73 755.03"/><polygon class="cls-5" points="228.46 760.85 237.55 770.45 250.17 770.45 255.73 754.29 245.13 746.21 232 747.72 228.46 760.85"/></g></g></g></svg>