<svg xmlns="http://www.w3.org/2000/svg" viewBox="0 0 481.14 884"><defs><style>.cls-1{fill:#999;}.cls-2{fill:gray;}.cls-3{fill:#c69c6d;}.cls-4,.cls-7{fill:#20495b;}.cls-5,.cls-6{fill:#123;}.cls-6,.cls-7,.cls-8{stroke:#c69c6d;stroke-miterlimit:10;}.cls-6,.cls-7{stroke-width:2px;}.cls-8{fill:none;stroke-width:3px;}.cls-9{fill:#e6e6e6;}.cls-10{fill:#7d4569;}</style></defs><title>target1</title><g id="Layer_2" data-name="Layer 2"><g id="SKILLS"><g id="target1"><rect class="cls-1" x="211.14" width="54" height="247"/><rect class="cls-2" x="238.14" width="27" height="247"/><path class="cls-3" d="M477.74,816.78c1.1,0,2.19,0,3.27.08V295.8c-38.92-.32-70.4-29.15-70.76-64.8H66.79c-1,33.89-30.13,61.34-66.79,63.47V818c38.54,1,69.47,29.84,69.47,65.37,0,.2,0,.4,0,.6h336.9c0-.6,0-1.2,0-1.8C406.31,846.07,438.29,816.78,477.74,816.78Z"/><circle class="cls-4" cx="240.51" cy="550.74" r="210.36"/><circle class="cls-5" cx="240.51" cy="548.12" r="161.87"/><circle class="cls-4" cx="240.51" cy="543.53" r="114.03"/><circle class="cls-6" cx="239.85" cy="540.91" r="79.95"/><circle class="cls-7" cx="239.94" cy="538.38" r="39.41"/><line class="cls-8" x1="0.14" y1="538.5" x2="481.14" y2="539"/><line class="cls-8" x1="238.64" y1="232" x2="238.64" y2="883"/><circle class="cls-6" cx="239.2" cy="538.29" r="15.73"/><path class="cls-9" d="M320.9,582.11v-3l-1.51-1.5-1-2a3.44,3.44,0,0,0,0-2.49l-1-3,1-1,2,1h2.52c.51,0,4,1.5,6.06,1.5l2,2Z"/><path class="cls-9" d="M331,573.65l13.63,1.49-3.53-3v-1h-1s-1.52-1.5-1.52-2a11.16,11.16,0,0,1,.51-2,11,11,0,0,1-.51-2,11.18,11.18,0,0,0-.5-2s-3.53,3-4,3,0,2,0,2l-3.49,5Z"/><path class="cls-9" d="M348.17,588.09l1-2.49.5-2.49a29.29,29.29,0,0,1,2-3.49c.51-.49.51-2.49.51-2.49s-2,1-3,0l-3-3s-1.52,0-1.52.49,3,13.45,3,13.45S348.17,588.59,348.17,588.09Z"/><path class="cls-9" d="M339.08,597.55h6.06a7.92,7.92,0,0,1,3.53-2.49,13,13,0,0,1,3-1,5.68,5.68,0,0,1,2-3c1.52-1-1.51,0-2-.5a7,7,0,0,0-1.51-1l-.51.49-1.51-2s0-.5-.51,0-8.58,9-8.58,9S338.57,597.55,339.08,597.55Z"/><path class="cls-9" d="M326.46,597.55V600c0,.5,1.51,3,2,3s0,3.49,1,4,1-1,2-1,4.54-1.49,5-2.49,2.53-3.49,2.53-4v-2Z"/><polygon class="cls-9" points="320.9 582.12 319.39 581.62 318.88 584.61 318.38 585.6 319.39 586.6 318.38 588.09 318.88 589.09 318.88 590.08 321.91 592.57 321.91 593.57 323.93 594.57 326.46 597.55 320.9 582.12"/><polygon class="cls-10" points="348.17 587.93 339.08 597.52 326.46 597.52 320.9 581.37 331.51 573.29 344.63 574.8 348.17 587.93"/><path class="cls-9" d="M123.28,361.19v-3l-1.51-1.49-1-2a3.37,3.37,0,0,0,0-2.49l-1-3,1-1,2,1h2.52c.51,0,4,1.49,6.06,1.49l2,2Z"/><path class="cls-9" d="M133.38,352.72l13.64,1.5-3.54-3v-1h-1s-1.51-1.49-1.51-2a11.18,11.18,0,0,1,.5-2,11.42,11.42,0,0,1-.5-2,11.16,11.16,0,0,0-.51-2s-3.53,3-4,3,0,2,0,2l-3.48,5Z"/><path class="cls-9" d="M150.55,367.16l1-2.49.51-2.49a28,28,0,0,1,2-3.48c.5-.5.5-2.49.5-2.49s-2,1-3,0l-3-3s-1.51,0-1.51.5,3,13.44,3,13.44S150.55,367.66,150.55,367.16Z"/><path class="cls-9" d="M141.46,376.63h6.06a7.83,7.83,0,0,1,3.54-2.49,12.71,12.71,0,0,1,3-1,5.61,5.61,0,0,1,2-3c1.51-1-1.52,0-2-.49a7.39,7.39,0,0,0-1.52-1l-.5.5-1.52-2s0-.49-.5,0-8.59,9-8.59,9S141,376.63,141.46,376.63Z"/><path class="cls-9" d="M128.84,376.63v2.49c0,.5,1.51,3,2,3s0,3.48,1,4,1-1,2-1,4.54-1.49,5.05-2.49,2.52-3.48,2.52-4v-2Z"/><polygon class="cls-9" points="123.28 361.19 121.77 360.69 121.27 363.68 120.76 364.68 121.77 365.67 120.76 367.17 121.27 368.16 121.27 369.16 124.3 371.65 124.3 372.64 126.31 373.64 128.84 376.63 123.28 361.19"/><polygon class="cls-10" points="150.55 367 141.46 376.6 128.84 376.6 123.28 360.44 133.89 352.36 147.02 353.88 150.55 367"/><path class="cls-9" d="M89.72,805.69v-3l-1.51-1.49-1-2a3.37,3.37,0,0,0,0-2.49l-1-3,1-1,2,1h2.52c.51,0,4,1.5,6.06,1.5l2,2Z"/><path class="cls-9" d="M99.82,797.22l13.64,1.5-3.54-3v-1h-1s-1.51-1.49-1.51-2a11.18,11.18,0,0,1,.5-2,11.34,11.34,0,0,1-.5-2,11.24,11.24,0,0,0-.51-2s-3.53,3-4,3,0,2,0,2l-3.48,5Z"/><path class="cls-9" d="M117,811.66l1-2.49.51-2.49a28,28,0,0,1,2-3.48c.5-.5.5-2.49.5-2.49s-2,1-3,0l-3-3s-1.51,0-1.51.5,3,13.44,3,13.44S117,812.16,117,811.66Z"/><path class="cls-9" d="M107.9,821.13H114a7.83,7.83,0,0,1,3.54-2.49,12.71,12.71,0,0,1,3-1,5.61,5.61,0,0,1,2-3c1.51-1-1.52,0-2-.5a7.64,7.64,0,0,0-1.52-1l-.5.5-1.52-2s0-.49-.5,0-8.59,9-8.59,9S107.4,821.13,107.9,821.13Z"/><path class="cls-9" d="M95.28,821.13v2.49c0,.5,1.51,3,2,3s0,3.48,1,4,1-1,2-1,4.54-1.49,5-2.49,2.52-3.48,2.52-4v-2Z"/><polygon class="cls-9" points="89.72 805.69 88.21 805.19 87.7 808.18 87.2 809.17 88.21 810.17 87.2 811.66 87.7 812.66 87.7 813.66 90.73 816.15 90.73 817.14 92.75 818.14 95.28 821.13 89.72 805.69"/><polygon class="cls-10" points="116.99 811.5 107.9 821.1 95.28 821.1 89.72 804.94 100.33 796.86 113.46 798.38 116.99 811.5"/></g></g></g></svg>