<svg xmlns="http://www.w3.org/2000/svg" viewBox="0 0 481.01 880.98"><defs><style>.cls-1{fill:#999;}.cls-2{fill:gray;}.cls-3{fill:#c69c6d;}.cls-4{fill:#e6e6e6;}.cls-5{fill:#7d4569;}</style></defs><title>target3BACK</title><g id="Layer_2" data-name="Layer 2"><g id="SKILLS"><g id="target3"><rect class="cls-1" x="219.59" width="54" height="247" transform="translate(493.17 247) rotate(-180)"/><rect class="cls-2" x="219.59" width="27" height="247" transform="translate(466.17 247) rotate(-180)"/><path class="cls-3" d="M3.28,813.75c-1.1,0-2.19,0-3.28.08V292.78c38.93-.32,70.41-29.15,70.76-64.8H414.22c1,33.89,30.13,61.34,66.79,63.47V815c-38.54,1-69.46,29.85-69.46,65.37,0,.21,0,.4,0,.61H74.66c0-.6,0-1.2,0-1.81C74.71,843,42.73,813.75,3.28,813.75Z"/><path class="cls-4" d="M45.11,755.09v-3l1.52-1.49,1-2a3.38,3.38,0,0,1,0-2.49l1-3-1-1-2,1H43.09c-.5,0-4,1.49-6.06,1.49l-2,2Z"/><path class="cls-4" d="M35,746.62l-13.63,1.5,3.53-3v-1h1s1.52-1.49,1.52-2a11,11,0,0,0-.51-2,11.24,11.24,0,0,0,.51-2,11.34,11.34,0,0,1,.5-2s3.54,3,4,3,0,2,0,2l3.49,5Z"/><path class="cls-4" d="M17.84,761.07l-1-2.49-.5-2.49a29.29,29.29,0,0,0-2-3.49c-.5-.5-.5-2.49-.5-2.49s2,1,3,0l3-3s1.52,0,1.52.5-3,13.45-3,13.45S17.84,761.56,17.84,761.07Z"/><path class="cls-4" d="M26.93,770.53H20.87A7.92,7.92,0,0,0,17.34,768a12.9,12.9,0,0,0-3-1,5.61,5.61,0,0,0-2-3c-1.51-1,1.52,0,2-.49a7.16,7.16,0,0,1,1.51-1l.51.5,1.51-2s0-.5.51,0,8.58,9,8.58,9S27.44,770.53,26.93,770.53Z"/><path class="cls-4" d="M39.56,770.53V773c0,.5-1.52,3-2,3s0,3.48-1,4-1-1-2-1-4.55-1.5-5-2.49-2.53-3.49-2.53-4v-2Z"/><polygon class="cls-4" points="45.11 755.09 46.63 754.59 47.13 757.58 47.64 758.58 46.63 759.57 47.64 761.07 47.13 762.06 47.13 763.06 44.1 765.55 44.1 766.54 42.08 767.54 39.56 770.53 45.11 755.09"/><polygon class="cls-5" points="17.84 760.91 26.93 770.5 39.56 770.5 45.11 754.34 34.51 746.26 21.38 747.78 17.84 760.91"/><path class="cls-4" d="M141.73,290.16v-3l1.51-1.5,1-2a3.44,3.44,0,0,1,0-2.49l1-3-1-1-2,1h-2.52c-.51,0-4,1.49-6.06,1.49l-2,2Z"/><path class="cls-4" d="M131.63,281.7,118,283.19l3.53-3v-1h1s1.52-1.5,1.52-2a11.24,11.24,0,0,0-.51-2,11,11,0,0,0,.51-2,11.18,11.18,0,0,1,.5-2s3.53,3,4,3,0,2,0,2l3.49,5Z"/><path class="cls-4" d="M114.46,296.14l-1-2.49-.5-2.49a29.29,29.29,0,0,0-2-3.49c-.51-.49-.51-2.49-.51-2.49s2,1,3,0l3-3s1.52,0,1.52.5-3,13.45-3,13.45S114.46,296.64,114.46,296.14Z"/><path class="cls-4" d="M123.55,305.6h-6.06a7.92,7.92,0,0,0-3.53-2.49,13,13,0,0,0-3-1,5.65,5.65,0,0,0-2-3c-1.52-1,1.51,0,2-.5a7.16,7.16,0,0,1,1.51-1l.51.5,1.51-2s0-.5.51,0,8.58,9,8.58,9S124.06,305.6,123.55,305.6Z"/><path class="cls-4" d="M136.17,305.6v2.49c0,.5-1.51,3-2,3s0,3.49-1,4-1-1-2-1-4.54-1.49-5-2.49-2.53-3.49-2.53-4v-2Z"/><polygon class="cls-4" points="141.73 290.16 143.24 289.67 143.75 292.65 144.25 293.65 143.24 294.65 144.25 296.14 143.75 297.14 143.75 298.13 140.72 300.62 140.72 301.62 138.7 302.62 136.17 305.6 141.73 290.16"/><polygon class="cls-5" points="114.46 295.98 123.55 305.57 136.17 305.57 141.73 289.42 131.13 281.34 118 282.85 114.46 295.98"/><path class="cls-4" d="M441.29,534.66v-3l1.51-1.49,1-2a3.44,3.44,0,0,1,0-2.49l1-3-1-1-2,1h-2.52c-.51,0-4,1.49-6.06,1.49l-2,2Z"/><path class="cls-4" d="M431.19,526.2l-13.63,1.49,3.53-3v-1h1s1.52-1.5,1.52-2a11.24,11.24,0,0,0-.51-2,11,11,0,0,0,.51-2,11.18,11.18,0,0,1,.5-2s3.53,3,4,3,0,2,0,2l3.49,5Z"/><path class="cls-4" d="M414,540.64l-1-2.49-.5-2.49a29.29,29.29,0,0,0-2-3.49c-.51-.5-.51-2.49-.51-2.49s2,1,3,0l3-3s1.52,0,1.52.5-3,13.45-3,13.45S414,541.14,414,540.64Z"/><path class="cls-4" d="M423.11,550.1h-6.06a7.92,7.92,0,0,0-3.53-2.49,13,13,0,0,0-3-1,5.65,5.65,0,0,0-2-3c-1.52-1,1.51,0,2-.5a7.16,7.16,0,0,1,1.51-1l.51.5,1.51-2s0-.5.51,0,8.58,9,8.58,9S423.62,550.1,423.11,550.1Z"/><path class="cls-4" d="M435.73,550.1v2.49c0,.5-1.51,3-2,3s0,3.49-1,4-1-1-2-1-4.54-1.5-5.05-2.49-2.52-3.49-2.52-4v-2Z"/><polygon class="cls-4" points="441.29 534.66 442.8 534.16 443.31 537.15 443.81 538.15 442.8 539.14 443.81 540.64 443.31 541.63 443.31 542.63 440.28 545.12 440.28 546.12 438.26 547.11 435.73 550.1 441.29 534.66"/><polygon class="cls-5" points="414.02 540.48 423.11 550.07 435.73 550.07 441.29 533.91 430.68 525.84 417.56 527.35 414.02 540.48"/></g></g></g></svg>